<?xml version="1.0" encoding="utf-8"?>
<!-- Generator: Adobe Illustrator 17.0.0, SVG Export Plug-In . SVG Version: 6.00 Build 0)  -->
<!DOCTYPE svg PUBLIC "-//W3C//DTD SVG 1.1//EN" "http://www.w3.org/Graphics/SVG/1.1/DTD/svg11.dtd">
<svg version="1.1" id="Capa_1" xmlns="http://www.w3.org/2000/svg" xmlns:xlink="http://www.w3.org/1999/xlink" x="0px" y="0px"
	 width="32px" height="32px" viewBox="0 0 32 32" enable-background="new 0 0 32 32" xml:space="preserve">
<g id="icomoon-ignore">
	<line fill="none" stroke="#449FDB" x1="0" y1="0" x2="0" y2="0"/>
</g>
<path fill="#999898" d="M4.685,27.313c-6.248-6.248-6.248-16.379,0-22.627c6.25-6.248,16.379-6.248,22.629,0
	c6.248,6.248,6.248,16.379,0,22.627C21.064,33.562,10.935,33.562,4.685,27.313z M24.486,7.514c-4.688-4.687-12.285-4.687-16.971,0
	c-4.688,4.687-4.688,12.284,0,16.971c4.686,4.687,12.283,4.687,16.971,0C29.172,19.798,29.172,12.201,24.486,7.514z M11.758,23.071
	L8.93,20.242L13.172,16L8.93,11.758l2.828-2.829L16,13.172l4.242-4.243l2.828,2.829L18.828,16l4.242,4.242l-2.828,2.829L16,18.828
	L11.758,23.071z"/>
</svg>
